<svg id="erbsb611kvmd1" xmlns="http://www.w3.org/2000/svg" xmlns:xlink="http://www.w3.org/1999/xlink" viewBox="0 0 434 397" shape-rendering="geometricPrecision" text-rendering="geometricPrecision"><style><![CDATA[#erbsb611kvmd31_to {animation: erbsb611kvmd31_to__to 3000ms linear infinite reverse forwards}@keyframes erbsb611kvmd31_to__to { 0% {offset-distance: 0%} 16.666667% {offset-distance: 16.666667%} 33.333333% {offset-distance: 33.333333%} 50% {offset-distance: 50%} 66.666667% {offset-distance: 66.666667%} 83.333333% {offset-distance: 83.333333%} 100% {offset-distance: 100%} }#erbsb611kvmd32_to {animation: erbsb611kvmd32_to__to 3000ms linear infinite reverse forwards}@keyframes erbsb611kvmd32_to__to { 0% {offset-distance: 0%} 16.666667% {offset-distance: 16.666667%} 33.333333% {offset-distance: 33.333333%} 50% {offset-distance: 50%} 66.666667% {offset-distance: 66.666667%} 83.333333% {offset-distance: 83.333333%} 100% {offset-distance: 100%} }#erbsb611kvmd36_to {animation: erbsb611kvmd36_to__to 3000ms linear infinite reverse forwards}@keyframes erbsb611kvmd36_to__to { 0% {offset-distance: 0%} 16.666667% {offset-distance: 16.666667%} 33.333333% {offset-distance: 33.333333%} 50% {offset-distance: 50%} 66.666667% {offset-distance: 66.666667%} 83.333333% {offset-distance: 83.333333%} 100% {offset-distance: 100%} }]]></style><g id="erbsb611kvmd2"><g id="erbsb611kvmd3"><path id="erbsb611kvmd4" d="M405.143541,235.556449C422.734647,191.201315,418.752302,141.193004,394.363182,100.182049L148.611809,134.214959L384.120138,85.125178C355.078733,47.310087,310.099477,25.161854,262.424582,25.201076C177.617409,25.201076,108.867644,93.962552,108.867644,178.784172C108.869331,185.794452,109.346826,192.796532,110.296837,199.742121L405.143541,235.556449Z" transform="matrix(1 0 0 1 1.73060406999997 -1.47616099999999)" fill="rgb(242,242,242)" stroke="none" stroke-width="1"/><path id="erbsb611kvmd5" d="M119.131579,234.080288C141.326900,291.577046,197.109224,332.367262,262.424597,332.367262C323.713696,332.367262,376.608895,296.450445,401.236769,244.517084L119.131579,234.080288Z" fill="rgb(242,242,242)" stroke="none" stroke-width="1"/><path id="erbsb611kvmd6" d="M397.441482,287.496443C397.441482,347.851565,308.468790,396.775332,198.720744,396.775332C139.760917,396.775332,86.798821,382.657734,50.408843,360.228547C26.664728,345.599020,9.972193,327.428041,3.275881,307.347787C1.114727,300.952155,0.008314,294.247458,-5.684342,0C-5.684342,0,0,0,0,0C232.762226,401.527304,397.441482,227.147314,397.441482,287.496443Z" fill="rgb(224,224,224)" stroke="none" stroke-width="1"/><path id="erbsb611kvmd7" d="M297.478926,327.126888C297.478926,349.411492,227.113734,367.480089,140.308890,367.480089C106.875615,367.480089,75.881219,364.799907,50.408843,360.228532C26.664728,345.599004,9.972193,327.428026,3.275881,307.347771C30.223611,295.067155,81.493580,286.773691,140.308890,286.773691C227.113734,286.773691,297.478926,304.842289,297.478926,327.126888Z" opacity="0.1" fill="rgb(0,0,0)" stroke="none" stroke-width="1"/><path id="erbsb611kvmd8" d="M184.029195,97.275252C171.573271,76.224983,146.930221,75.243976,146.930221,75.243976C146.930221,75.243976,122.916970,72.172659,107.512622,104.232438C93.154537,134.114787,73.338556,162.966811,104.322408,169.962044L109.918984,152.540005L113.384920,171.259096C117.796418,171.576444,122.221976,171.652093,126.641741,171.485705C159.822920,170.414232,191.423026,171.799186,190.405551,159.890349C189.053010,144.059230,196.014293,117.529795,184.029195,97.275252Z" fill="rgb(47,46,65)" stroke="none" stroke-width="1"/><path id="erbsb611kvmd9" d="M102.553340,281.622243C102.091339,283.919745,101.749514,286.255331,100.964416,288.463372C100.184967,290.655502,98.981603,292.682802,98.268926,294.897542C95.997242,301.957155,99.146471,309.828444,104.176289,315.277555C108.538142,319.984136,114.168375,323.327946,120.387847,324.905644C124.925397,326.047053,129.643394,326.211332,134.319566,326.369926C147.268149,326.809087,160.549888,327.201988,172.819433,323.039940C176.695871,321.692601,180.440115,319.991328,184.004802,317.957640C185.130303,317.421328,186.121880,316.640443,186.907166,315.671975C187.842958,314.339471,187.962682,312.611317,187.954517,310.982978C187.926978,305.492803,186.814173,300.030618,187.078362,294.546735C187.224712,291.509217,187.793097,288.474051,187.513319,285.445914C186.878804,278.578396,181.426333,272.431755,174.684423,270.983740C171.203826,270.236185,167.593733,270.643530,164.050136,270.984317C154.851885,271.868303,145.614465,272.281411,136.374039,272.222025C126.932680,272.161749,117.549626,270.720294,108.155287,270.569753C105.377100,270.525233,105.433226,271.381862,104.548747,274.071092C103.734045,276.546209,103.067725,279.067740,102.553340,281.622243Z" fill="rgb(47,46,65)" stroke="none" stroke-width="1"/><path id="erbsb611kvmd10" d="M129.347090,146.056269C128.893377,148.432348,128.402977,150.895339,126.975329,152.848007C125.332775,155.094584,122.654645,156.378218,120.887616,158.528227C118.227876,161.764442,118.075209,166.318310,118.064243,170.507540C118.054147,174.366730,118.132519,178.482977,120.284258,181.686401C121.680745,183.765440,123.805630,185.223022,125.882297,186.622754C133.951711,192.061772,142.671590,197.598434,152.400742,197.777805C156.431887,197.852123,160.754182,196.810896,163.406627,193.773903C164.551853,192.347383,165.452329,190.740587,166.071325,189.019058C168.559005,182.885690,170.067007,176.399250,170.540089,169.797358C170.761655,166.691335,170.740486,163.494739,169.689382,160.563653C168.507455,157.267745,166.117624,154.555879,164.538162,151.431000C162.671077,147.715187,161.988181,143.516090,162.581569,139.399995C162.660161,139.110164,162.635893,138.802047,162.512896,138.528099C162.249559,138.230865,161.862367,138.073948,161.466436,138.103999L142.175100,136.715003C140.378408,136.625710,138.589311,136.421004,136.818876,136.102151C135.778923,135.890659,133.032182,134.413443,132.040587,134.806252C130.205071,135.533339,129.723336,144.085893,129.347090,146.056269Z" fill="rgb(250,206,206)" stroke="none" stroke-width="1"/><path id="erbsb611kvmd11" d="M129.347090,146.658571C128.893377,149.034650,128.402977,151.497641,126.975329,153.450309C125.332775,155.696886,122.654645,156.980520,120.887616,159.130530C118.227876,162.366744,118.075209,166.920617,118.064243,171.109842C118.054147,174.969032,118.132519,179.085279,120.284258,182.288703C121.680745,184.367742,123.805630,185.825324,125.882297,187.225056C133.951711,192.664074,142.671590,198.200736,152.400742,198.380107C156.431887,198.454425,160.754182,197.413198,163.406627,194.376205C164.551853,192.949685,165.452329,191.342889,166.071325,189.621360C168.559005,183.487992,170.067007,177.001552,170.540089,170.399660C170.761655,167.293637,170.740486,164.097041,169.689382,161.165955C168.507455,157.870047,166.117624,155.158182,164.538162,152.033302C162.671077,148.317489,161.988181,144.118392,162.581569,140.002297C162.660161,139.712466,162.635893,139.404349,162.512896,139.130401C162.249559,138.833167,161.862367,138.676250,161.466436,138.706301L142.175100,137.317305C140.378408,137.228012,138.589311,137.023306,136.818876,136.704453C135.778923,136.492961,133.032182,135.015745,132.040587,135.408554C130.205071,136.135625,129.723336,144.688179,129.347090,146.658571Z" opacity="0.1" fill="rgb(0,0,0)" stroke="none" stroke-width="1"/><ellipse id="erbsb611kvmd12" rx="28.302700" ry="28.307500" transform="matrix(1 0 0 1 147.79599999999999 120.33600000000000)" fill="rgb(250,206,206)" stroke="none" stroke-width="1"/><path id="erbsb611kvmd13" d="M133.316681,183.737975C134.791813,185.280091,136.354933,186.807011,138.287901,187.711013C140.210640,188.610225,142.376665,188.834008,144.498390,188.893697C149.600207,189.037230,155.130921,188.102246,158.679996,184.433760C163.254928,179.704897,163.104248,172.077668,166.690205,166.560809C166.979138,166.060626,167.373438,165.629319,167.845737,165.296825C168.447236,164.969296,169.127006,164.812978,169.811129,164.844868C174.340101,164.802516,178.285280,167.740389,181.845794,170.540176C183.440814,171.794407,185.075511,173.093802,186.081763,174.855952C186.785768,176.229837,187.267886,177.706524,187.510220,179.231190C189.277110,187.857831,189.849326,196.678280,190.417232,205.465723C190.730917,210.319426,191.044746,215.177800,191.021434,220.041575C190.944638,236.065659,187.220748,251.821765,183.517595,267.412120C183.040442,269.420935,182.387470,271.666312,180.560969,272.628515C179.746801,272.994648,178.872326,273.208118,177.981058,273.258303C167.374530,274.504172,156.746050,275.751525,146.067900,275.916030C141.900769,275.980223,137.735453,275.879334,133.571953,275.613362C132.855225,275.603892,132.144609,275.479990,131.466956,275.246336C130.547242,274.804656,129.756871,274.133345,129.172105,273.297179C123.396157,266.017486,123.055222,255.953196,123.092141,246.659890C123.182407,223.938555,123.994071,201.235373,125.527133,178.550343C125.653708,176.677945,125.681344,174.403938,124.332418,172.930996C126.761315,176.820031,130.139621,180.416655,133.316681,183.737975Z" fill="rgb(37,37,37)" stroke="none" stroke-width="1"/><path id="erbsb611kvmd14" d="M127.321628,151.052687C126.365716,152.783344,119.318230,157.080851,117.957632,158.515241C110.355806,166.529389,96.481376,166.228678,89.528959,174.812457C87.082872,177.832510,85.812004,181.627155,84.877329,185.399711C83.555389,190.735334,82.849529,196.554329,85.064031,201.585339C87.194873,206.426314,91.680544,209.773096,94.726019,214.097332C98.069914,218.845282,99.573397,224.610273,101.014226,230.236268C102.078087,234.390298,103.150762,238.647225,102.736418,242.915294C102.265351,247.767994,99.917483,252.211361,98.531236,256.885580C97.144990,261.559799,96.905729,267.126851,100.110940,270.800260C102.465706,273.498985,106.159216,274.568861,109.689582,275.170710C114.195774,275.938918,118.775354,276.157628,123.342079,276.359434C127.377770,276.537770,131.826275,276.572444,134.928716,273.984839C137.376692,271.943090,138.440661,268.629818,138.578367,265.444792C138.716074,262.259765,138.053521,259.102936,137.638513,255.942069C137.208292,252.665357,137.042960,249.360097,136.904626,246.058154C136.283942,231.242742,136.199248,216.417805,136.650543,201.583341C136.744550,198.496499,136.858559,195.371743,136.200464,192.354425C135.334967,188.386139,133.190651,184.839719,131.401423,181.193596C127.850016,173.956456,126.170477,166.926178,126.719444,158.882428C127.261310,150.942881,130.723137,144.894135,127.321628,151.052687Z" fill="rgb(192,7,30)" stroke="none" stroke-width="1"/><path id="erbsb611kvmd15" d="M167.065772,151.654973C168.521783,153.151684,173.469270,153.645122,175.321425,154.609003C177.022834,155.494463,178.905493,155.957130,180.748443,156.488332C187.504486,158.437679,193.930706,161.387580,199.813471,165.239968C201.035777,165.955197,202.116421,166.888777,203.001672,167.994288C204.037862,169.436006,204.413974,171.234972,204.765272,172.975418C205.672188,177.468572,206.583645,182.015849,206.379819,186.595087C206.163494,191.455892,204.699575,196.163606,203.247292,200.807358L197.820814,218.158791C193.770322,231.110430,189.694146,244.189582,188.554425,257.712066C187.923864,265.206562,188.204206,272.749880,189.389311,280.176875C189.508571,280.923549,189.608577,281.779437,189.115608,282.352713C188.758096,282.706156,188.287716,282.922625,187.786755,282.964252C185.167701,283.373842,182.633095,282.038208,180.260155,280.856352C173.007412,277.246426,165.267208,274.713350,157.283737,273.337039C160.403423,268.827812,162.810415,263.865089,164.420133,258.623256C165.334330,255.294835,166.054262,251.916067,166.576284,248.504055L169.100620,233.901525C170.026280,228.546994,170.953532,223.178519,171.266043,217.753537C171.456877,215.719779,171.338409,213.668838,170.914678,211.670591C170.431254,209.742839,169.470112,207.976071,168.609139,206.184859C164.448912,197.529672,162.496911,187.652529,164.133806,178.189707C164.850158,174.048492,166.242248,169.901727,165.661764,165.739287C165.103660,161.737270,165.683680,158.626999,164.657036,154.666416C160.441748,138.404668,164.326522,148.839182,167.065772,151.654973Z" fill="rgb(192,7,30)" stroke="none" stroke-width="1"/><path id="erbsb611kvmd16" d="M89.456965,188.497006C87.560365,192.433397,84.389550,195.786842,83.310352,200.021040C82.890416,201.999920,82.710473,204.022209,82.774416,206.044159C82.748839,209.091527,82.732231,212.200686,83.667807,215.100944C84.270156,216.968157,85.250069,218.690133,85.956022,220.520673C86.940077,223.078101,87.378485,225.813101,87.243092,228.550032C87.052605,232.341763,85.764696,236.022396,85.664047,239.817572C85.505764,245.785805,88.265772,251.396434,90.958889,256.724612C92.330967,253.326210,95.132742,250.706731,98.615255,249.566404C102.097768,248.426077,105.905949,248.881168,109.021809,250.810023C109.732272,250.153799,109.808126,249.076204,109.835927,248.109367C110.034994,241.185296,110.227011,234.261025,110.411979,227.336556C110.703500,216.627406,110.981208,205.775167,108.518122,195.349138C107.406032,190.641779,105.675633,185.952581,102.503443,182.301422C100.833109,180.378902,95.162763,175.314927,92.420861,177.468644C91.187817,178.437201,91.476003,181.073657,91.280620,182.408704C90.985719,184.519060,90.370765,186.572094,89.456965,188.497006Z" fill="rgb(192,7,30)" stroke="none" stroke-width="1"/><path id="erbsb611kvmd17" d="M206.934232,177.153274C207.831263,179.947109,207.884924,182.932374,207.902789,185.866677C207.939238,191.852342,207.859926,197.837216,207.664850,203.821298C207.564974,206.884764,207.427453,209.990442,206.498724,212.911399C205.886243,214.837729,204.941071,216.644146,204.308527,218.563989C202.412828,224.317657,203.448584,230.558033,203.611141,236.613843C203.725900,238.573870,203.558660,240.540222,203.114543,242.452699C202.114119,246.206831,199.425569,249.240318,197.549093,252.642113C195.766949,255.872911,194.691612,259.494277,192.563149,262.508119C190.434685,265.521962,186.750092,267.910069,183.178704,266.984858C180.472712,266.283837,178.549937,263.888238,177.219967,261.429196C174.317800,256.022509,173.325236,249.794342,174.402993,243.753170C175.738204,236.403119,180.054857,229.882665,181.611614,222.576351C183.749407,212.543162,180.500332,202.189695,180.597017,191.931658C180.552920,190.323672,180.770989,188.719237,181.242658,187.181376C182.059231,184.838241,183.813003,182.967069,185.433172,181.087863C187.457753,178.739420,189.338523,176.270702,191.065190,173.695219C192.225097,171.965102,193.800383,167.515278,195.856766,167.145290C200.447935,166.319278,205.795175,173.605639,206.934232,177.153274Z" fill="rgb(192,7,30)" stroke="none" stroke-width="1"/><path id="erbsb611kvmd18" d="M65.634165,277.160149C63.095330,276.521937,60.479407,276.243803,57.863161,276.333910C52.302438,276.641333,47.142163,279.324716,43.696416,283.700727C40.250670,288.076738,38.851983,293.723070,39.856537,299.201867C40.397044,302.149759,41.611318,304.929336,42.935821,307.617726C44.996677,311.800772,47.468459,315.974226,51.283690,318.654825C53.515505,320.222908,56.098562,321.200569,58.650920,322.162266L78.745017,329.733355C81.701087,330.847149,84.657595,331.961102,87.642923,332.993873C102.640905,338.178832,118.277415,341.287929,134.117805,342.234741C138.942773,342.522105,143.840749,342.602071,148.547775,341.503427C149.664782,341.242709,150.856305,340.854051,151.503016,339.906570C151.886036,339.239127,152.111857,338.493124,152.163309,337.725279L153.399792,329.067631C153.573896,327.848588,153.741411,326.565455,153.294695,325.417950C152.728271,323.962916,151.308452,323.047607,149.954692,322.269940C136.744267,314.681221,121.319485,310.494596,110.200080,300.079190C107.582386,297.627234,105.391798,293.740645,102.211335,292.075083C98.604723,290.186372,94.357258,289.108402,90.629332,287.367966C82.479610,283.563172,74.466899,279.190873,65.634165,277.160149Z" fill="rgb(47,46,65)" stroke="none" stroke-width="1"/><path id="erbsb611kvmd19" d="M85.695200,288.831902C92.797623,291.057816,122.784047,306.478980,127.923812,311.863221C127.234874,312.111478,103.859907,299.009566,103.158526,298.799033C96.782865,296.885230,90.371743,294.958879,84.317129,292.158119C83.099102,291.594682,76.404109,288.946383,76.707307,287.409309C77.049441,285.674825,84.434329,288.436746,85.695200,288.831902Z" opacity="0.1" fill="rgb(0,0,0)" stroke="none" stroke-width="1"/><path id="erbsb611kvmd20" d="M174.302344,346.724847C174.705399,346.754419,175.105485,346.636656,175.428273,346.393437C175.714288,346.026019,175.841058,345.559238,175.780204,345.097585C175.769169,341.165987,175.758142,337.234391,175.747121,333.302797C172.355949,331.686806,168.562722,331.168822,164.839460,330.671063L147.467264,328.348597C147.866390,328.401958,144.751032,335.832212,145.228704,336.824177C146.070618,338.572516,152.504732,340.122026,154.320567,340.947519C160.633115,343.817226,167.192693,346.972125,174.302344,346.724847Z" fill="rgb(160,97,106)" stroke="none" stroke-width="1"/><path id="erbsb611kvmd21" d="M119.797319,333.261974C116.517293,333.784495,112.856356,334.246385,110.732160,336.800109C108.038400,340.038574,109.185159,344.866320,110.470170,348.878142C110.661113,349.689716,111.044343,350.443481,111.587552,351.075895C112.464510,351.941185,113.808371,352.067957,115.037790,352.145817C118.029132,352.335265,121.212519,352.483685,123.826157,351.016170C125.063839,350.321234,126.086766,349.305620,127.240079,348.478150C129.167419,347.195465,131.286010,346.226712,133.516862,345.608010C137.617932,344.317796,141.839456,343.447662,146.116402,343.011012C147.792934,342.839998,149.502822,342.730054,151.079884,342.135918C152.656946,341.541783,154.117220,340.363671,154.575360,338.741635C155.180798,336.598185,153.935208,334.412862,152.740632,332.533070C151.252552,330.191419,149.676046,327.725817,147.457240,326.001972C144.220264,323.487124,142.619031,325.417661,139.358388,327.026974C133.187006,330.073325,126.593067,332.175113,119.797319,333.261974Z" fill="rgb(160,97,106)" stroke="none" stroke-width="1"/><path id="erbsb611kvmd22" d="M111.225618,336.216957L90.398668,330.060187C87.865714,329.311407,85.289515,328.556077,82.648216,328.558039C80.006917,328.560001,77.243510,329.426187,75.530518,331.436984C73.915534,333.332744,73.453290,335.923728,73.050674,338.381539L72.189434,343.639148C71.751758,346.311009,71.313284,349.034249,71.707220,351.712907C72.101156,354.391566,73.468344,357.067722,75.844692,358.364439C78.726740,359.937105,82.259052,359.168964,85.475579,358.511154C91.972728,357.182903,98.581211,356.474122,105.212216,356.394335C107.705090,356.364517,110.319824,356.395751,112.522619,355.228082C115.141075,353.840081,116.707589,350.905231,116.976952,347.953513C117.386806,343.462326,115.890083,337.595850,111.225618,336.216957Z" fill="rgb(47,46,65)" stroke="none" stroke-width="1"/><path id="erbsb611kvmd23" d="M182.489092,330.851716C185.188994,330.378436,187.571809,328.843715,190.158902,327.937808C193.800363,326.662722,197.746555,326.662738,201.604712,326.676821C203.021040,326.681970,204.529285,326.713750,205.708252,327.498780C207.407699,328.630380,207.843269,330.894958,208.132242,332.916373C208.713394,336.981736,209.294551,341.047095,209.875712,345.112450C210.203658,347.406400,210.529626,349.761737,210.018134,352.021852C209.506642,354.281966,207.966360,356.460811,205.724006,357.043860C203.000591,357.751988,200.330765,356.011969,197.759349,354.868959C191.332303,352.012068,183.861243,352.742260,177.159891,350.607002C175.916257,350.210744,174.584315,349.604822,174.076973,348.402035C173.847755,347.724645,173.765977,347.006071,173.837119,346.294485C173.951885,342.374309,173.125200,337.021230,174.305247,333.274652C175.366493,329.905239,179.475335,330.851716,182.489092,330.851716Z" fill="rgb(47,46,65)" stroke="none" stroke-width="1"/><path id="erbsb611kvmd24" d="M226.563460,272.251251C230.725008,271.207533,235.039038,270.912737,239.303847,271.380647C242.709851,271.755938,246.219078,272.703857,248.705847,275.061728C251.732598,277.931585,252.705098,282.369896,252.786229,286.540486C252.919289,294.847274,250.164658,302.942589,244.992861,309.443653C243.729945,311.087961,242.228098,312.533972,240.537220,313.733642C238.713186,314.874862,236.769131,315.811865,234.740154,316.527734L189.740259,334.280035C177.901789,338.950274,166.021511,343.634045,153.673346,346.712901C152.991307,347.042212,152.205262,347.082319,151.493258,346.824138C150.781253,346.565957,150.203540,346.031336,149.890976,345.341371C145.948272,339.708621,142.640588,333.656980,140.028257,327.296831C139.777213,326.990076,139.691436,326.580181,139.798412,326.198480C139.905388,325.816780,140.191683,325.511197,140.565567,325.379645L172.394350,307.088686C174.674250,305.778504,176.979573,304.449450,178.872662,302.624274C180.248238,301.290943,181.374598,299.722551,182.198662,297.993009C182.858425,296.614745,182.919967,293.362244,183.762710,292.343493C184.587809,291.346050,187.410359,291.266449,188.713950,290.874140C190.552434,290.310900,192.352869,289.630192,194.104147,288.836217C201.224002,285.650485,207.564130,281.021774,214.389477,277.291607C218.217610,275.102483,222.308373,273.408798,226.563460,272.251251Z" fill="rgb(47,46,65)" stroke="none" stroke-width="1"/><path id="erbsb611kvmd25" d="M208.519357,285.910873C203.051065,290.018644,195.970589,293.794624,190.550933,298.010630C188.701264,299.449505,157.866795,316.787911,157.430807,319.090660C162.487046,319.942753,194.695736,297.406489,199.304003,295.157729C203.912269,292.908969,207.997332,289.737726,212.045280,286.589923C213.076872,285.787721,217.448719,283.376180,214.487361,282.479928C212.819154,281.975038,209.750980,285.089685,208.519357,285.910873Z" opacity="0.1" fill="rgb(0,0,0)" stroke="none" stroke-width="1"/><path id="erbsb611kvmd26" d="M170.893323,152.052823L122.891898,152.052823C118.830863,152.052828,115.538744,155.345508,115.538739,159.407235L115.538739,162.100357L115.017156,162.100357L115.017156,168.123223L115.538739,168.123223L115.538739,172.339229L115.017156,172.339229L115.017156,175.952949L115.538739,175.952949L115.538739,220.393103C115.538744,224.454830,118.830863,227.747510,122.891898,227.747515L170.893323,227.747515C174.954358,227.747510,178.246477,224.454830,178.246482,220.393103L178.246482,159.407235C178.246477,155.345508,174.954358,152.052828,170.893323,152.052823Z" transform="matrix(1 0 0 1 0.00869799999998 0.01198097000002)" fill="rgb(63,61,86)" stroke="none" stroke-width="1"/><polygon id="erbsb611kvmd27" points="178.522270,95.246016 154.176055,82.491039 120.555212,87.709195 113.599371,118.436789 130.915096,117.770488 135.752420,106.481476 135.752420,117.584603 143.742036,117.277198 148.379606,99.304581 151.277573,118.436789 179.681663,117.856994" fill="rgb(47,46,65)" stroke="none" stroke-width="1"/><path id="erbsb611kvmd28" d="M95.826520,268.271262C97.029406,270.067324,98.438830,271.824134,100.370969,272.793071C102.785275,274.003803,105.765429,273.787713,108.183072,272.583650C110.579936,271.298265,112.541877,269.330870,113.820794,266.930257C116.466737,262.257114,117.014709,256.665206,116.684535,251.304929C116.354360,245.944651,115.210021,240.666462,114.703543,235.319958C114.335375,231.433421,114.305432,227.523702,114.275778,223.619869C114.269549,222.799489,114.282754,221.915575,114.767382,221.253671C115.353442,220.453225,116.426477,220.232686,117.377344,219.950121C122.717449,218.363223,126.262060,213.357053,128.803292,208.398765C130.500165,205.087970,131.975704,201.468844,131.648484,197.762826C131.321264,194.056808,128.657848,190.323324,124.957311,189.945252C121.906471,189.633569,119.089497,191.571645,116.888788,193.707803C111.337220,199.130282,107.769354,206.261906,106.758455,213.956801C106.275366,217.724995,106.413737,221.595730,105.389013,225.253902C103.200994,233.064802,96.355089,237.853709,92.943494,244.882123C89.184287,252.626666,91.259044,261.418913,95.826520,268.271262Z" fill="rgb(250,206,206)" stroke="none" stroke-width="1"/><path id="erbsb611kvmd29" d="M196.567918,238.430394C194.995113,242.090136,192.010197,244.958753,188.291250,246.384585C186.003191,247.303797,183.479291,247.458399,181.096179,246.825322C178.700703,246.160662,176.751870,244.417222,175.825344,242.109997C175.460731,240.963463,175.260830,239.770933,175.231634,238.568154C174.889273,233.300809,175.021559,227.872964,176.934520,222.953460C177.672351,221.055995,178.667184,219.256504,179.249480,217.305679C179.913634,215.080605,180.019663,212.732934,180.121161,210.413017L180.750014,196.041056C180.854011,194.997676,180.781854,193.944233,180.536561,192.924786C179.909315,190.845248,177.966102,189.493826,176.183119,188.253682C171.877097,185.258665,167.621895,181.763788,165.535358,176.950994C164.896895,175.478336,164.475513,173.841310,164.799602,172.269227C165.387943,169.415353,168.267530,167.567794,171.113695,166.945354C174.876750,166.122396,178.812612,166.872389,182.009504,169.021591C185.206395,171.170793,187.386914,174.532711,188.045924,178.328528C188.327535,179.950435,188.323638,181.607156,188.488450,183.245061C188.838064,186.719434,189.940862,190.068549,190.630757,193.491642C192.330117,201.923422,191.449560,210.639441,193.130021,219.069790C194.535084,226.118549,199.833251,230.717904,196.567918,238.430394Z" fill="rgb(250,206,206)" stroke="none" stroke-width="1"/><ellipse id="erbsb611kvmd30" rx="6.021840" ry="6.022870" transform="matrix(1 0 0 1 147.53500000000000 178.36199999999999)" fill="rgb(208,205,225)" stroke="none" stroke-width="1"/><g id="erbsb611kvmd31_to" style="offset-path:path('M401.731117,217.076788C419.652191,179.728252,396.586211,115.720098,384.937883,94.787101C372.784435,66.521305,335.766061,33.058328,301.304754,32.266379C259.991631,40.903287,234.744594,50.831145,215.500410,88.100114C191.192824,112.952081,195.256573,217.200225,224.021317,262.141512C248.313144,309.237669,313.945164,310.180372,332.163576,299.840321C365.290480,293.890709,388.810440,246.968370,401.236769,217.133598');offset-rotate:0deg"><path id="erbsb611kvmd31" d="M401.731117,184.810410C383.913923,184.810410,369.470234,199.256560,369.470234,217.076789C369.470234,234.897017,383.913923,249.343167,401.731117,249.343167C419.548310,249.343167,433.992000,234.897017,433.992000,217.076789C433.992001,208.519213,430.593097,200.312132,424.543007,194.261012C418.492918,188.209892,410.287235,184.810409,401.731117,184.810410ZM417.674825,208.893254C417.691814,209.241677,417.700314,209.598560,417.700314,209.955525C417.700314,220.841358,409.424727,233.392891,394.275460,233.392891C389.805672,233.402686,385.429942,232.109225,381.683612,229.670756C382.334941,229.748987,382.990318,229.788704,383.646326,229.789702C387.352842,229.796310,390.953530,228.553961,393.867598,226.263044C390.345646,226.196733,387.255446,223.898323,386.178261,220.543917C386.687310,220.646526,387.205371,220.697773,387.724655,220.696888C388.456443,220.696746,389.184984,220.599595,389.891247,220.407974C386.050102,219.631351,383.288612,216.254451,383.289453,212.334940L383.289453,212.232956C384.433000,212.875804,385.716530,213.228826,387.027928,213.261186C383.405921,210.846283,382.285929,206.030657,384.470458,202.264842C388.643003,207.414965,394.810026,210.545358,401.429494,210.873285C401.285258,210.257774,401.213970,209.627421,401.217102,208.995238C401.213174,205.616157,403.275993,202.578479,406.418005,201.336462C409.560016,200.094445,413.141850,200.900828,415.448740,203.369563C417.292325,203.009154,419.059997,202.333594,420.674115,201.372555C420.060168,203.279837,418.773721,204.898746,417.054581,205.927499C418.684816,205.729752,420.276777,205.291592,421.778642,204.627280C420.674820,206.281713,419.285174,207.726266,417.674820,208.893254L417.674825,208.893254Z" transform="translate(-414.681512,-222.509219)" fill="rgb(37,37,37)" stroke="none" stroke-width="1"/></g><g id="erbsb611kvmd32_to" style="offset-path:path('M308.277122,123.368038Q298.027196,51.503693,222.695524,42.876487C179.322949,44.612980,151.862874,59.418880,138.596870,82.491039C115.030997,104.835260,115.655833,236.710799,138.596870,252.481538C142.301022,280.807890,206.007348,318.325822,236.411877,311.866705C269.501158,310.115025,310.603076,253.344650,316.537495,227.759496C327.356306,193.000206,313.306532,144.021924,309.103159,123.368038');offset-rotate:0deg"><g id="erbsb611kvmd32" transform="translate(-318.120940,-106.985462)"><ellipse id="erbsb611kvmd33" rx="5.732560" ry="5.733540" transform="matrix(1 0 0 1 391.35800000000000 95.06189999999999)" fill="rgb(37,37,37)" stroke="none" stroke-width="1"/><path id="erbsb611kvmd34" d="M390.989812,61.347385C372.206701,61.347385,356.979981,76.576699,356.979981,95.363010C356.979981,114.149320,372.206701,129.378634,390.989812,129.378634C409.772923,129.378634,424.999643,114.149320,424.999643,95.363010C424.999644,86.341505,421.416477,77.689497,415.038396,71.310329C408.660315,64.931162,400.009781,61.347384,390.989812,61.347385ZM408.555419,102.228777C408.539238,107.763497,404.057258,112.246259,398.523481,112.262465L384.192054,112.262465C378.658264,112.246276,374.176262,107.763510,374.160075,102.228777L374.160075,87.894935C374.176262,82.360201,378.658263,77.877434,384.192054,77.861241L398.523512,77.861241C404.057289,77.877451,408.539269,82.360215,408.555450,87.894935L408.555419,102.228777Z" fill="rgb(37,37,37)" stroke="none" stroke-width="1"/><path id="erbsb611kvmd35" d="M398.523491,80.728009L384.192054,80.728009C380.239338,80.739558,377.037898,83.941546,377.026354,87.894935L377.026354,102.228777C377.037896,106.182167,380.239338,109.384154,384.192054,109.395698L398.523512,109.395698C402.476184,109.384070,405.677561,106.182123,405.689155,102.228777L405.689155,87.894935C405.677558,83.941590,402.476184,80.739643,398.523512,80.728009L398.523491,80.728009ZM391.357734,103.662163C386.608728,103.662149,382.758908,99.811654,382.758917,95.061839C382.758927,90.312024,386.608762,86.461544,391.357768,86.461549C396.106775,86.461553,399.956602,90.312041,399.956602,95.061856C399.955383,99.811179,396.106249,103.660958,391.357734,103.662163ZM400.673119,87.894930C399.485867,87.894916,398.523420,86.932282,398.523435,85.744827C398.523449,84.557373,399.485918,83.594762,400.673171,83.594776C401.860423,83.594790,402.822870,84.557424,402.822856,85.744879C402.824244,86.315541,402.598199,86.863231,402.194742,87.266747C401.791286,87.670264,401.243685,87.896335,400.673119,87.894935L400.673119,87.894930Z" fill="rgb(37,37,37)" stroke="none" stroke-width="1"/></g></g><g id="erbsb611kvmd36_to" style="offset-path:path('M36.510849,7.148458C37.170202,6.923012,-41.616338,17.478498,-48.570994,57.536734C-65.967246,74.323069,-45.288506,194.842679,-26.267986,206.913848C-10.600981,231.913904,13.042749,245.825595,57.987819,249.343167C124.423408,239.874199,124.489901,207.033915,131.694288,189.912150C147.120625,145.926352,129.135259,86.353805,123.089846,66.939040C115.523876,40.670486,79.627065,5.863217,37.336886,7.148458');offset-rotate:0deg"><path id="erbsb611kvmd36" d="M253.033959,0C234.552402,0,219.570140,14.984815,219.570140,33.469520C219.570140,51.954226,234.552402,66.939040,253.033959,66.939040C271.515517,66.939040,286.497779,51.954226,286.497779,33.469520C286.497779,24.592851,282.972137,16.079748,276.696453,9.802995C270.420770,3.526243,261.909116,0,253.033959,0ZM263.585483,20.252067L259.301826,20.252067C256.377201,20.252067,255.819014,21.635712,255.819014,23.674758L255.819014,28.007773L262.784637,28.007773L261.874395,34.804614L255.818988,34.804614L255.818988,53.253204L248.052484,53.253204L248.052484,34.804614L242.482436,34.804614L242.482436,28.007778L248.052484,28.007778L248.052484,22.982953C248.052484,16.962893,252.227044,13.685836,257.602950,13.685836C260.175581,13.685836,262.942401,13.880031,263.585498,13.964982L263.585483,20.252067Z" transform="translate(9.972185,-7.148458)" fill="rgb(37,37,37)" stroke="none" stroke-width="1"/></g></g></g></svg>